<svg xmlns="http://www.w3.org/2000/svg" viewBox="0 0 140.26 120.93"><defs><style>.cls-1{fill:#a7a7b1;}</style></defs><g id="Capa_2" data-name="Capa 2"><g id="Capa_2-2" data-name="Capa 2"><path class="cls-1" d="M.44,1.57A.51.51,0,0,1,0,1.19.52.52,0,0,1,.44.64L3.26.3,8.37,0,47,0c2.76,5.07,5.08,9.16,6.66,11.9,2.85,5,4.83,8.26,11.74,19.88,1.56,2.62,3.89,6.54,5.38,9.07a3.64,3.64,0,0,0,.78,1,3.14,3.14,0,0,0,1.49.79,2.93,2.93,0,0,0,1.45-.06,2.82,2.82,0,0,0,1.3-.85c1.39-2.77,2.54-5,3.29-6.45,2.67-5.18,4-7.46,6.56-12.54,1.25-2.43,2.23-4.39,2.82-5.57L110.2,54.76,71.92,120.93l-.62,0L3.85,2.86A7.68,7.68,0,0,0,3,2.16a4.59,4.59,0,0,0-.81-.49,3.09,3.09,0,0,0-.71-.21,1.58,1.58,0,0,0-.65,0C.63,1.51.58,1.59.44,1.57Z"/><path class="cls-1" d="M106.56,22.37a.42.42,0,0,1-.25,0,1,1,0,0,1-.61-.52c-1.81-2.7-3.85-6.42-4.09-9.72a10.85,10.85,0,0,1,.33-3.57,10.56,10.56,0,0,1,1.49-3.24,10.82,10.82,0,0,1,2.81-2.76A11.55,11.55,0,0,1,113,.81c2.94,0,5.89,0,8.83,0L140.26,1,125.89,26.11a10.65,10.65,0,0,1-1.65,1.79,10.76,10.76,0,0,1-2.48,1.62,9.07,9.07,0,0,1-6.93.57,10.83,10.83,0,0,1-4.3-2.43,7,7,0,0,1-2.34-3c-.4-1.45.66-2.89,1.45-4a26.09,26.09,0,0,1,15.18-10.44l-4-1.72c1-.71,2.07-1.42,3.16-2.13S126,5,127,4.4c-.69.16-1.39.33-2.11.53A46.16,46.16,0,0,0,114,9.53l3.11.84a19.78,19.78,0,0,0-4.87,4.1c-.89,1-4.57,5.69-5,6.92C107.14,21.78,106.92,22.26,106.56,22.37Z"/></g></g></svg>