<svg xmlns="http://www.w3.org/2000/svg" viewBox="0 0 212.42 44.09"><defs><style>.cls-1{fill:#a7a7b1;}</style></defs><g id="Capa_2" data-name="Capa 2"><g id="Capa_3" data-name="Capa 3"><path class="cls-1" d="M34.23,1A10.87,10.87,0,0,0,23.38,11.87a9.3,9.3,0,0,0,.13,1.06A26.89,26.89,0,0,1,5.13,3.21a1,1,0,0,0-1.65.13A10.67,10.67,0,0,0,2,8.77,10.78,10.78,0,0,0,4.2,15.18c-.26-.11-.54-.18-.79-.31A1,1,0,0,0,2,15.74v.13a10.78,10.78,0,0,0,4.71,8.84H6.57a1,1,0,0,0-.92.33,1,1,0,0,0-.2.95,10.85,10.85,0,0,0,7.5,7.1,18.74,18.74,0,0,1-9.6,2.65,20.23,20.23,0,0,1-2.22-.12,1,1,0,0,0-.65,1.84A28.76,28.76,0,0,0,16.1,42.05a28.08,28.08,0,0,0,21.56-9.46A30.11,30.11,0,0,0,45.13,13c0-.28,0-.56,0-.84a21,21,0,0,0,4.75-5A1,1,0,0,0,49.79,6a1,1,0,0,0-1.19-.26C48.09,6,47.48,6,47,6.18a10.39,10.39,0,0,0,1.68-3.13A1,1,0,0,0,47.16,1.9a18.54,18.54,0,0,1-5.59,2.15A10.78,10.78,0,0,0,34.23,1Zm0,2.14A8.88,8.88,0,0,1,40.66,6a1,1,0,0,0,.94.28,20.82,20.82,0,0,0,3.75-1.13,9,9,0,0,1-2.57,2.35,1,1,0,0,0-.5,1.23,1,1,0,0,0,1.16.64,19.53,19.53,0,0,0,2.84-.78A18.6,18.6,0,0,1,43.51,11a1.09,1.09,0,0,0-.45.91c0,.4,0,.81,0,1.22a28.15,28.15,0,0,1-7,18.22,26,26,0,0,1-20.07,8.81A26.81,26.81,0,0,1,4.91,37.75a20.7,20.7,0,0,0,11.25-4.28,1,1,0,0,0,.32-1.1,1,1,0,0,0-.92-.68A8.78,8.78,0,0,1,8,27H8a10.81,10.81,0,0,0,3-.38,1,1,0,0,0,.73-1,1,1,0,0,0-.79-.94,8.78,8.78,0,0,1-6.84-7.22,10.4,10.4,0,0,0,3.15.65,1,1,0,0,0,1-.69,1,1,0,0,0-.42-1.15A8.85,8.85,0,0,1,4,8.91a8.72,8.72,0,0,1,.69-3.19,28.86,28.86,0,0,0,19.9,9.53,1,1,0,0,0,1-1.22,8.49,8.49,0,0,1-.25-2A8.82,8.82,0,0,1,34.19,3.16Z"/><path class="cls-1" d="M88,13V31a13,13,0,0,0,13,13h18a13,13,0,0,0,13-13V13A13,13,0,0,0,119,0H101A13,13,0,0,0,88,13ZM101,2h18a11,11,0,0,1,11,11V31a11,11,0,0,1-11,11H101A11,11,0,0,1,90,31V13A11,11,0,0,1,101,2Zm20.56,5.54a2,2,0,1,0,2,2A2,2,0,0,0,121.51,7.54Zm-12,3a11,11,0,1,0,11,11A11,11,0,0,0,109.51,10.54Zm0,2a9,9,0,1,1-9,9A9,9,0,0,1,109.51,12.54Z"/><path class="cls-1" d="M190.42.16a22,22,0,0,0-3.28,43.72l.81.18V27h-5V23h6V18.33c0-2.88.66-4.78,1.77-6a6.5,6.5,0,0,1,5-1.79,21.31,21.31,0,0,1,3.21.2V14h-2.79A3.22,3.22,0,0,0,193,15.66,16.74,16.74,0,0,0,192,19.18V23h6.44l-.54,4H192V44.09l1.45-.16a22,22,0,0,0-3-43.77Zm0,2A19.92,19.92,0,0,1,194,41.69V29h5.61l1.16-8H194V19.11a5.05,5.05,0,0,1,.47-2.36,1.27,1.27,0,0,1,1.3-.75H201V9.31l-.85-.12a29.54,29.54,0,0,0-4.34-.27,8.6,8.6,0,0,0-6.48,2.4C187.72,13,187,15.47,187,18.67V21h-6v8h6V41.63s-16.53-9.85-16.53-19.47A20,20,0,0,1,190.42,2.16Z"/></g></g></svg>