<svg xmlns="http://www.w3.org/2000/svg" viewBox="0 0 257.84 216.78"><defs><style>.cls-1,.cls-2{fill:#a7a7b1;}.cls-2{font-size:79.56px;font-family:NeuropoliticalRg-Regular, Neuropolitical;}.cls-3{letter-spacing:-0.04em;}.cls-4{letter-spacing:0em;}.cls-5{letter-spacing:-0.15em;}</style></defs><g id="Capa_2" data-name="Capa 2"><g id="Capa_2-2" data-name="Capa 2"><path class="cls-1" d="M59.42,1.57A.49.49,0,0,1,59,1.19a.51.51,0,0,1,.43-.55L62.23.3,67.34,0,106,0c2.77,5.07,5.09,9.16,6.66,11.9,2.86,5,4.83,8.26,11.74,19.88l5.39,9.07a3.57,3.57,0,0,0,.77,1,3.19,3.19,0,0,0,1.49.79,3,3,0,0,0,1.46-.06,2.88,2.88,0,0,0,1.3-.85c1.39-2.77,2.53-5,3.28-6.45,2.67-5.18,4-7.46,6.57-12.54,1.24-2.43,2.23-4.39,2.81-5.57Q158.32,36,169.17,54.76l-38.28,66.17-.62,0L62.82,2.86a6.84,6.84,0,0,0-.84-.7,4.49,4.49,0,0,0-.8-.49,3.26,3.26,0,0,0-.71-.21,1.58,1.58,0,0,0-.65,0C59.6,1.51,59.56,1.59,59.42,1.57Z"/><path class="cls-1" d="M165.54,22.37a.45.45,0,0,1-.26,0,1,1,0,0,1-.61-.52c-1.81-2.7-3.84-6.42-4.08-9.72a10.68,10.68,0,0,1,1.81-6.81,10.82,10.82,0,0,1,2.81-2.76A11.57,11.57,0,0,1,171.93.81c2.95,0,5.89,0,8.84,0L199.24,1,184.87,26.11a10.77,10.77,0,0,1-1.66,1.79,11,11,0,0,1-2.47,1.62,9.48,9.48,0,0,1-3.47,1,9.35,9.35,0,0,1-3.47-.41,10.9,10.9,0,0,1-4.3-2.43,7,7,0,0,1-2.34-3c-.4-1.45.66-2.89,1.46-4a26,26,0,0,1,15.17-10.44l-4-1.72c1-.71,2.06-1.42,3.16-2.13S185,5,186,4.4c-.7.16-1.4.33-2.11.53A46.16,46.16,0,0,0,173,9.53l3.1.84a20.18,20.18,0,0,0-4.87,4.1c-.88,1-4.57,5.69-5,6.92C166.12,21.78,165.89,22.26,165.54,22.37Z"/></g><g id="volt"><text class="cls-2" transform="translate(0 199.28)"><tspan class="cls-3">V</tspan><tspan class="cls-4" x="78.44" y="0">O</tspan><tspan class="cls-5" x="149.09" y="0">L</tspan><tspan x="197.06" y="0">T</tspan></text></g></g></svg>